<svg xmlns="http://www.w3.org/2000/svg" xmlns:xlink="http://www.w3.org/1999/xlink" xmlns:lucid="lucid" width="1300" height="1020"><g transform="translate(-80 -220)" lucid:page-tab-id="0_0"><path d="M380 246a6 6 0 0 1 6-6h688a6 6 0 0 1 6 6v968a6 6 0 0 1-6 6H386a6 6 0 0 1-6-6z" stroke="#3a414a" fill-opacity="0"/><use xlink:href="#a" transform="matrix(1,0,0,1,388,248) translate(233.51234567901233 17.77777777777778)"/><use xlink:href="#b" transform="matrix(1,0,0,1,388,248) translate(364.3148148148148 17.77777777777778)"/><path d="M640 380c0 33.14-35.82 60-80 60s-80-26.86-80-60 35.82-60 80-60 80 26.86 80 60z" stroke="#3a414a" fill="#fff"/><use xlink:href="#c" transform="matrix(1,0,0,1,480,320) translate(53.555 63.15)"/><path d="M920 400c0 33.14-35.82 60-80 60s-80-26.86-80-60 35.82-60 80-60 80 26.86 80 60z" stroke="#3a414a" fill="#fff"/><use xlink:href="#d" transform="matrix(1,0,0,1,760,340) translate(65.055 63.15)"/><path d="M820 580c0 33.14-35.82 60-80 60s-80-26.86-80-60 35.82-60 80-60 80 26.86 80 60z" stroke="#3a414a" fill="#fff"/><use xlink:href="#e" transform="matrix(1,0,0,1,660,520) translate(51.529999999999994 63.15)"/><path d="M680 770c0 33.14-35.82 60-80 60s-80-26.86-80-60 35.82-60 80-60 80 26.86 80 60z" stroke="#3a414a" fill="#fff"/><use xlink:href="#f" transform="matrix(1,0,0,1,520,710) translate(35.42999999999999 51.9)"/><use xlink:href="#g" transform="matrix(1,0,0,1,520,710) translate(87.68 51.9)"/><use xlink:href="#h" transform="matrix(1,0,0,1,520,710) translate(54.529999999999994 73.5)"/><path d="M960 770c0 33.14-35.82 60-80 60s-80-26.86-80-60 35.82-60 80-60 80 26.86 80 60z" stroke="#3a414a" fill="#fff"/><use xlink:href="#f" transform="matrix(1,0,0,1,800,710) translate(35.42999999999999 51.9)"/><use xlink:href="#g" transform="matrix(1,0,0,1,800,710) translate(87.68 51.9)"/><use xlink:href="#i" transform="matrix(1,0,0,1,800,710) translate(64.055 73.5)"/><use xlink:href="#j" transform="matrix(1,0,0,1,800,710) translate(69.055 73.5)"/><path d="M660 960c0 33.14-35.82 60-80 60s-80-26.86-80-60 35.82-60 80-60 80 26.86 80 60z" stroke="#3a414a" fill="#fff"/><use xlink:href="#k" transform="matrix(1,0,0,1,500,900) translate(35.60499999999999 63.15)"/><path d="M810 1140c0 33.14-35.82 60-80 60s-80-26.86-80-60 35.82-60 80-60 80 26.86 80 60z" stroke="#3a414a" fill="#fff"/><use xlink:href="#l" transform="matrix(1,0,0,1,650,1080) translate(22.404999999999994 63.15)"/><use xlink:href="#m" transform="matrix(1,0,0,1,650,1080) translate(87.605 63.15)"/><use xlink:href="#n" transform="matrix(1,0,0,1,650,1080) translate(112.605 63.15)"/><path d="M159.75 539.75c0 10.9-8.84 19.75-19.75 19.75-10.9 0-19.75-8.84-19.75-19.75 0-10.9 8.84-19.75 19.75-19.75 10.9 0 19.75 8.84 19.75 19.75z" stroke="#3a414a" fill="#fff"/><path d="M140 559.5v49.3a20.7 20.7 0 0 0 3.2 11.07L180 678m-40-63.2L100 678m0-98.75h80" stroke="#3a414a" fill="none"/><path d="M100 526a6 6 0 0 1 6-6h68a6 6 0 0 1 6 6v168a6 6 0 0 1-6 6h-68a6 6 0 0 1-6-6z" fill="none"/><use xlink:href="#o" transform="matrix(1,0,0,1,20,678) translate(94.10493827160494 17.77777777777778)"/><path d="M1339.75 539.75c0 10.9-8.84 19.75-19.75 19.75-10.9 0-19.75-8.84-19.75-19.75 0-10.9 8.84-19.75 19.75-19.75 10.9 0 19.75 8.84 19.75 19.75z" stroke="#3a414a" fill="#fff"/><path d="M1320 559.5v49.3a20.7 20.7 0 0 0 3.2 11.07L1360 678m-40-63.2l-40 63.2m0-98.75h80" stroke="#3a414a" fill="none"/><path d="M1280 526a6 6 0 0 1 6-6h68a6 6 0 0 1 6 6v168a6 6 0 0 1-6 6h-68a6 6 0 0 1-6-6z" fill="none"/><use xlink:href="#o" transform="matrix(1,0,0,1,1200,678) translate(94.10493827160494 17.77777777777778)"/><path d="M750.94 490.5h-4.92l-.88.07-.84.2-.8.33-.73.45-.66.56-.55.67-.45.73-.33.8-.2.82-.07 8h-1l.07-8.12.25-1 .4-.95.52-.87.66-.78.78-.66.87-.53.94-.38.98-.24 1-.08h4.96zm14.82-.02h-9.88v-1h9.88zm14.83 0h-9.9v-1h9.9zm5.2 0h-.27v-1h.26zm54.7-14.15h-1v-7.66h1zm0-11.5h-1V461h1z" stroke="#3a414a" stroke-width=".05" fill="#3a414a"/><path d="M840 460.5h.5v.5h-1v-.52z" fill="#3a414a"/><path d="M840 460.48h.52v.56h-1.04v-.58zm-.48.5h.96v-.46h-.96z" stroke="#3a414a" stroke-width=".05" fill="#3a414a"/><path d="M740 517.88l-4.64-14.26h9.28z" fill="#3a414a"/><path d="M740 519.5l-5.32-16.38h10.64zm-3.95-15.38l3.95 12.14 3.95-12.14z" stroke="#3a414a" stroke-width=".05" fill="#3a414a"/><use xlink:href="#p" transform="matrix(1,0,0,1,785.7925925925928,479.3333333333333) translate(0 14.222222222222223)"/><path d="M180.5 579.75h143.25a6 6 0 0 0 6-6V386a6 6 0 0 1 6-6H479" stroke="#3a414a" fill="none"/><path d="M180.5 580.25H177v-.5h3v-.5h.5zM479.5 380v.5h-.5v-1h.52z" stroke="#3a414a" stroke-width=".05" fill="#3a414a"/><path d="M180.5 579.75H344a6 6 0 0 0 6-6V466a6 6 0 0 1 6-6h376.5a6 6 0 0 0 6-6v-48a6 6 0 0 1 6-6H759" stroke="#3a414a" fill="none"/><path d="M180.5 580.25H177v-.5h3v-.5h.5zM759.5 400v.5h-.5v-1h.52z" stroke="#3a414a" stroke-width=".05" fill="#3a414a"/><path d="M180.5 579.75h457.87a.13.13 0 0 1 .13.13.13.13 0 0 0 .12.12H659" stroke="#3a414a" fill="none"/><path d="M180.5 580.25H177v-.5h3v-.5h.5zM659.5 580v.5h-.5v-1h.52zM600.52 688.77l-.02 4.35h-1l.02-4.36zm10.26-13.27h-4.76l-.88.07-.84.2-.8.33-.73.45-.66.56-.55.67-.45.73-.33.8-.2.82-.02 4.3h-1l.02-4.42.25-1 .4-.95.52-.87.66-.78.78-.66.87-.53.94-.38.98-.24 1-.08h4.8zm14.32 0h-9.55v-1h9.55zm14.33-.02h-9.55v-1h9.55zm14.33 0h-9.56v-1h9.55zm14.32-.02h-9.55v-1h9.55zm14.33 0h-9.54v-1h9.55zm14.33 0h-9.55v-1h9.55zm14.33-.02h-9.55v-1h9.56zm14.33 0h-9.56v-1h9.55zm13.2-1.84l-.78.66-.87.53-.94.38-1 .25h-4.84v-1h4.72l.82-.2.8-.33.73-.45.14-.12h1.45zm1.9-21.6h-1v-1.67h1zm0-6.33h-1V641h1z" stroke="#3a414a" stroke-width=".05" fill="#3a414a"/><path d="M740 640.5h.5v.5h-1v-.52z" fill="#3a414a"/><path d="M740 640.48h.52v.56h-1.04v-.58zm-.48.5h.96v-.46h-.96z" stroke="#3a414a" stroke-width=".05" fill="#3a414a"/><path d="M600 707.88l-4.64-14.26h9.28z" fill="#3a414a"/><path d="M600 709.5l-5.32-16.38h10.64zm-3.95-15.38l3.95 12.14 3.95-12.14zM880.5 693.1l-1 .02-.02-4.35h1zm-6.48-18.6l1 .08 1 .24.93.4.87.52.78.66.66.78.53.87.38.94.25 1 .02 4.4-1 .02-.02-4.3-.2-.82-.33-.8-.45-.73-.56-.66-.67-.55-.73-.45-.8-.33-.84-.2-.88-.07h-4.76v-1zm-9.57 0v1h-9.55v-1zm-14.33 0v1l-9.55-.02v-1zm-14.32-.02v1h-9.56v-1zm-14.33 0v1l-9.55-.02v-1zm-14.33-.02v1h-9.55v-1zm-14.32 0v1h-9.55v-1zm-14.33 0v1l-9.56-.02v-1zm-14.34-.02v1h-9.55v-1zm-21.4-1l.74.46.8.33.82.2h4.72v1H745l-1-.25-.95-.4-.87-.52-.78-.66-.22-.27h1.45zM740.5 652h-1v-1.67h1zm0-6.33h-1V641h1z" stroke="#3a414a" stroke-width=".05" fill="#3a414a"/><path d="M740 640.5h.5v.5h-1v-.52z" fill="#3a414a"/><path d="M740 640.48h.52v.56h-1.04v-.58zm-.48.5h.96v-.46h-.96z" stroke="#3a414a" stroke-width=".05" fill="#3a414a"/><path d="M880 707.88l-4.64-14.26h9.28z" fill="#3a414a"/><path d="M880 709.5l-5.32-16.38h10.64zm-3.95-15.38l3.95 12.14 3.95-12.14z" stroke="#3a414a" stroke-width=".05" fill="#3a414a"/><use xlink:href="#p" transform="matrix(1,0,0,1,698.5925925925926,652) translate(0 14.222222222222223)"/><path d="M571.07 879.15l-.02 4.42h-1l.02-4.43zm.58-10.42l-.33.8-.2.82-.02 4.37h-1l.02-4.5.24-1 .4-.94h1.17zm28.85-21.8h-1v-6.52h1zm0-11.23h-1V831h1z" stroke="#3a414a" stroke-width=".05" fill="#3a414a"/><path d="M600 830.5h.5v.5h-1v-.52z" fill="#3a414a"/><path d="M600 830.48h.52v.56h-1.04v-.58zm-.48.5h.96v-.46h-.96z" stroke="#3a414a" stroke-width=".05" fill="#3a414a"/><path d="M570.55 898.34l-4.64-14.27h9.28z" fill="#3a414a"/><path d="M570.55 899.95l-5.33-16.38h10.65zm-3.95-15.38l3.95 12.15 3.94-12.15z" stroke="#3a414a" stroke-width=".05" fill="#3a414a"/><use xlink:href="#p" transform="matrix(1,0,0,1,558.5925925925926,846.9333333333334) translate(0 14.222222222222223)"/><path d="M682.22 960.5h-5.34v-1h5.34zm16.02-.03h-10.68v-1h10.68zm16.02-.03l-10.68.02v-1l10.68-.02zm16.24-11.4V954l-.08 1-.24 1-.4.93-.52.87-.66.78-.78.66-.87.53-.94.38-1 .25h-5.4v-1h5.28l.82-.2.8-.33.73-.45.66-.56.55-.67.45-.73.33-.8.2-.84.07-.88v-4.95zm0-14.92v9.94h-1v-9.94zm0-14.9v9.93h-1v-9.94zm.02-14.92v9.94h-1v-9.95zm0-14.92v9.94h-1v-9.94zm0-14.9v9.93h-1v-9.93zm.02-14.92v9.94h-1v-9.94zm0-4.97h-1v-7.67h1zm.02-39.77v9.94h-1v-9.94zm0-14.92v9.96h-1v-9.95zm0-14.9v9.94h-1V785zm10.7-14.5H736l-.88.07-.84.2-.8.33-.73.45-.66.56-.55.67-.45.73-.33.8-.2.82v4.9h-1V775l.25-1 .4-.95.52-.87.66-.78.78-.66.87-.53.94-.38.98-.24 1-.08h5.27zm57.74 0h-5.25v-1H799zm-10.5 0H778v-1h10.5zm-15.75 0h-10.5v-1h10.5zm-15.75 0h-10.5v-1H757z" stroke="#3a414a" stroke-width=".05" fill="#3a414a"/><path d="M799.5 770v.5h-.5v-1h.52z" fill="#3a414a"/><path d="M799.52 770v.53h-.56v-1.05h.58zm-.5-.48v.96h.46v-.96z" stroke="#3a414a" stroke-width=".05" fill="#3a414a"/><path d="M676.38 964.64L662.12 960l14.26-4.64z" fill="#3a414a"/><path d="M676.88 965.32L660.5 960l16.38-5.32zM663.74 960l12.14 3.95v-7.9z" stroke="#3a414a" stroke-width=".05" fill="#3a414a"/><use xlink:href="#p" transform="matrix(1,0,0,1,688.5925925925926,825.6000000000001) translate(0 14.222222222222223)"/><path d="M730.5 1058.44v4.68h-1v-4.68zm.05-14.03l-.03 9.37h-1l.03-9.36zm10.6-13.9h-5.13l-.88.07-.84.2-.8.33-.73.45-.66.56-.55.67-.45.73-.33.8-.2.82v4.62h-1V1035l.25-1 .4-.95.52-.87.66-.78.78-.66.87-.53.94-.38.98-.24 1-.08h5.17zm15.43 0h-10.3v-1h10.3zm15.44-.02h-10.3v-1h10.3zm15.44 0h-10.3v-1h10.3zm15.44-.02h-10.3v-1h10.3zm15.43 0h-10.3v-1h10.3zm15.44 0h-10.3v-1h10.3zm15.44-.02h-10.28v-1h10.3zm15.45 0h-10.3v-1h10.3zm15.85-6.42l-.08 1-.24 1-.4.93-.52.87-.66.78-.78.66-.87.53-.94.38-1 .25h-5.2v-1h5.08l.82-.2.8-.33.73-.45.66-.56.55-.67.45-.73.33-.8.2-.84.07-.88v-4.93h1zm0-9.92h-1v-9.9h1zm0-32.1h-1v-7.5h1zm0-12.44h-1v-9.9h1zm0-14.84h-1v-9.9h1zm0-14.85h-1v-9.9h1zm0-14.84h-1v-9.9h1zm0-14.85h-1v-9.9h1zm0-14.85h-1v-9.9h1zm0-14.84h-1v-9.9h1zm0-14.86h-1v-9.9h1zm0-14.85h-1v-9.9h1zm0-14.85h-1V831h1z" stroke="#3a414a" stroke-width=".05" fill="#3a414a"/><path d="M880 830.5h.5v.5h-1v-.52z" fill="#3a414a"/><path d="M880 830.48h.52v.56h-1.04v-.58zm-.48.5h.96v-.46h-.96z" stroke="#3a414a" stroke-width=".05" fill="#3a414a"/><path d="M730 1077.88l-4.64-14.26h9.28z" fill="#3a414a"/><path d="M730 1079.5l-5.32-16.38h10.64zm-3.95-15.38l3.95 12.14 3.95-12.14z" stroke="#3a414a" stroke-width=".05" fill="#3a414a"/><use xlink:href="#p" transform="matrix(1,0,0,1,838.5925925925926,982.0108510384752) translate(0 14.222222222222223)"/><path d="M816.08 1140.5H811v-1h5.08zm15.25 0h-10.16v-1h10.16zm15.25 0h-10.16v-1h10.16zm15.25 0h-10.16v-1h10.16zm15.25 0h-10.16v-1h10.16zm15.25 0h-10.16v-1h10.16zm15.25 0h-10.16v-1h10.16zm15.25 0h-10.16v-1h10.16zm15.25 0h-10.16v-1h10.16zm15.25 0h-10.16v-1h10.16zm15.25 0h-10.16v-1h10.16zm15.25 0h-10.16v-1h10.16zm16.6-10.52v5.02l-.25 1-.4.95-.52.87-.66.78-.78.66-.87.53-.94.38-.98.24-1 .08h-5.1v-1h5.06l.88-.07.84-.2.8-.33.73-.45.66-.56.55-.67.45-.73.33-.8.2-.82v-4.9zm0-14.88v9.92h-1v-9.92zm0-14.87v9.9h-1v-9.9zm0-14.88v9.92h-1v-9.92zm0-14.88v9.92h-1v-9.93zm0-14.87v9.92h-1v-9.92zm0-14.88v9.92h-1v-9.92zm0-14.87v9.9h-1v-9.9zm0-14.88v9.92h-1v-9.93zm0-14.88v9.9h-1v-9.9zm0-14.88v9.9h-1v-9.9zm0-14.88v9.92h-1v-9.92zm0-14.88v9.92h-1v-9.92zm.02-14.87v9.9h-1v-9.9zm0-14.9v9.93h-1v-9.92zm0-14.86v9.9h-1v-9.9zm0-14.88v9.92h-1v-9.92zm0-14.88V887h-1v-9.92zm0-14.87v9.92h-1v-9.9zm0-14.87v9.92h-1v-9.92zm0-14.88v9.92h-1v-9.92zm0-14.87v9.92h-1v-9.92zm0-14.88v9.92h-1v-9.92zm0-14.87v9.9h-1v-9.9zm0-14.88v9.92h-1v-9.92zm0-14.88V768h-1v-9.93zm.02-14.87v9.9h-1v-9.9zm0-14.88v9.92h-1v-9.92zm0-14.88v9.92h-1v-9.92zm0-14.87v9.9h-1v-9.9zm0-14.88v9.9h-1v-9.9zm0-14.9v9.93h-1v-9.92zm0-14.86v9.92h-1v-9.92zm0-4.96h-1v-6.3h1zm0-39.67v9.93h-1v-9.92zm0-14.87v9.92h-1v-9.92zm0-14.87v9.9h-1v-9.9zm0-14.88v9.92h-1v-9.92zm.02-14.88l-.02 9.92h-1v-9.92zm0-14.87v9.92h-1v-9.92zm0-14.88v9.92h-1v-9.92zm0-14.87v9.9h-1v-9.9zm0-14.88v9.92h-1v-9.92zm0-14.88v9.92h-1v-9.92zm0-14.87v9.9h-1v-9.9zm0-14.88v9.92h-1v-9.93zm0-14.88v9.9h-1v-9.9zm0-14.88v9.92h-1v-9.92zm-5.5-16.35l1 .25.95.4.87.52.78.66.66.78.53.87.38.94.24.98.08 1v4.98h-1v-4.94l-.07-.88-.2-.84-.33-.8-.45-.73-.56-.66-.67-.55-.73-.45-.8-.33-.82-.2h-4.78v-1zm-9.74 0v1l-9.67-.02v-1zm-14.5-.03v1h-9.7v-1zm-14.52-.02v1h-9.68v-1zm-14.52 0v1l-4.84-.02v-1z" stroke="#3a414a" stroke-width=".05" fill="#3a414a"/><path d="M811 1140.5h-.52l.02-.5v-.5h.5z" fill="#3a414a"/><path d="M811.04 1140.53h-.58l.02-.52v-.53h.56zm-.52-1v.95h.47v-.94z" stroke="#3a414a" stroke-width=".05" fill="#3a414a"/><path d="M936.38 404.64L922.12 400l14.26-4.64z" fill="#3a414a"/><path d="M936.88 405.32L920.5 400l16.38-5.32zM923.74 400l12.14 3.95v-7.9z" stroke="#3a414a" stroke-width=".05" fill="#3a414a"/><use xlink:href="#p" transform="matrix(1,0,0,1,958.5925925925926,621.3333333333334) translate(0 14.222222222222223)"/><path d="M180.5 579.75H324a6 6 0 0 1 6 6V954a6 6 0 0 0 6 6h163" stroke="#3a414a" fill="none"/><path d="M180.5 580.25H177v-.5h3v-.5h.5zM499.5 960v.5h-.5v-1h.52z" stroke="#3a414a" stroke-width=".05" fill="#3a414a"/><path d="M345.02 579.33l1 .24.93.4.87.52.78.65.66.78.53.87.38.94.25 1 .07 549.24.07.88.2.84.33.8.45.73.56.66.67.55.73.45.8.33.82.2 293.88.07v1l-294-.07-1-.25-.95-.4-.87-.52-.78-.66-.66-.78-.53-.87-.38-.94-.24-.98-.08-1-.07-549.15-.2-.82-.33-.8-.45-.73-.56-.66-.67-.56-.73-.45-.8-.33-.84-.2-.88-.07H180.5v-1h163.52z" stroke="#3a414a" stroke-width=".05" fill="#3a414a"/><path d="M180.5 580.25H177v-.5h3v-.5h.5z" fill="#3a414a"/><path d="M180.54 580.27h-3.56v-.54h3v-.5h.56zm-.5-1v.5h-3v.46h3.45v-.96z" stroke="#3a414a" stroke-width=".05" fill="#3a414a"/><path d="M649.5 1140v.5h-.5v-1h.52z" fill="#3a414a"/><path d="M649.52 1140v.53h-.56v-1.06h.58zm-.5-.47v.94h.46v-.95z" stroke="#3a414a" stroke-width=".05" fill="#3a414a"/><path d="M1279.5 579.75H821" stroke="#3a414a" fill="none"/><path d="M1280 579.75h3v.5h-3.5v-1h.5zM821 580.25h-.5v-.64l-.02-.35h.53z" stroke="#3a414a" stroke-width=".05" fill="#3a414a"/><path d="M1039.76 1165.8l-.08 1-.24.98-.4.95-.52.87-.66.77-.78.66-.87.54-.93.4-1 .23-235.25.07v-1l235.12-.07.82-.2.8-.33.73-.45.65-.56.56-.65.46-.73.33-.8.2-.84.06-.88.07-523.08h1zm239.74-585.55h-234.22l-.88.07-.84.2-.8.33-.73.45-.66.56-.56.66-.44.73-.33.8-.2.82v36.46h-1v-36.58l.25-1 .4-.95.52-.87.66-.78.78-.66.87-.54.95-.4 1-.23 1-.08h234.25z" stroke="#3a414a" stroke-width=".05" fill="#3a414a"/><path d="M1280 579.75h3v.5h-3.5v-1h.5z" fill="#3a414a"/><path d="M1280.03 579.73h3v.54h-3.57v-1.04h.57zm-.52-.46v.96h3.47v-.46h-3v-.5z" stroke="#3a414a" stroke-width=".05" fill="#3a414a"/><path d="M799.03 1172.27h-.95l.47-.53.36-.47h.13z" fill="#3a414a"/><path d="M799.06 1172.3h-1.03l.5-.58.37-.47h.16zm-.14-1l-.35.45-.43.5h.87v-.95z" stroke="#3a414a" stroke-width=".05" fill="#3a414a"/><defs><path fill="#3a414a" d="M205 0l-28-72H64L36 0H1l101-248h38L239 0h-34zm-38-99l-47-123c-12 45-31 82-46 123h93" id="q"/><path fill="#3a414a" d="M84 4C-5 8 30-112 23-190h32v120c0 31 7 50 39 49 72-2 45-101 50-169h31l1 190h-30c-1-10 1-25-2-33-11 22-28 36-60 37" id="r"/><path fill="#3a414a" d="M59-47c-2 24 18 29 38 22v24C64 9 27 4 27-40v-127H5v-23h24l9-43h21v43h35v23H59v120" id="s"/><path fill="#3a414a" d="M100-194c62-1 85 37 85 99 1 63-27 99-86 99S16-35 15-95c0-66 28-99 85-99zM99-20c44 1 53-31 53-75 0-43-8-75-51-75s-53 32-53 75 10 74 51 75" id="t"/><path fill="#3a414a" d="M117-194c89-4 53 116 60 194h-32v-121c0-31-8-49-39-48C34-167 62-67 57 0H25l-1-190h30c1 10-1 24 2 32 11-22 29-35 61-36" id="u"/><path fill="#3a414a" d="M210-169c-67 3-38 105-44 169h-31v-121c0-29-5-50-35-48C34-165 62-65 56 0H25l-1-190h30c1 10-1 24 2 32 10-44 99-50 107 0 11-21 27-35 58-36 85-2 47 119 55 194h-31v-121c0-29-5-49-35-48" id="v"/><path fill="#3a414a" d="M135-143c-3-34-86-38-87 0 15 53 115 12 119 90S17 21 10-45l28-5c4 36 97 45 98 0-10-56-113-15-118-90-4-57 82-63 122-42 12 7 21 19 24 35" id="w"/><g id="a"><use transform="matrix(0.06172839506172839,0,0,0.06172839506172839,0,0)" xlink:href="#q"/><use transform="matrix(0.06172839506172839,0,0,0.06172839506172839,14.814814814814813,0)" xlink:href="#r"/><use transform="matrix(0.06172839506172839,0,0,0.06172839506172839,27.160493827160494,0)" xlink:href="#s"/><use transform="matrix(0.06172839506172839,0,0,0.06172839506172839,33.333333333333336,0)" xlink:href="#t"/><use transform="matrix(0.06172839506172839,0,0,0.06172839506172839,45.67901234567901,0)" xlink:href="#u"/><use transform="matrix(0.06172839506172839,0,0,0.06172839506172839,58.02469135802469,0)" xlink:href="#t"/><use transform="matrix(0.06172839506172839,0,0,0.06172839506172839,70.37037037037037,0)" xlink:href="#v"/><use transform="matrix(0.06172839506172839,0,0,0.06172839506172839,88.82716049382715,0)" xlink:href="#t"/><use transform="matrix(0.06172839506172839,0,0,0.06172839506172839,101.17283950617283,0)" xlink:href="#r"/><use transform="matrix(0.06172839506172839,0,0,0.06172839506172839,113.51851851851852,0)" xlink:href="#w"/></g><path fill="#3a414a" d="M33 0v-248h34V0H33" id="x"/><path fill="#3a414a" d="M114-163C36-179 61-72 57 0H25l-1-190h30c1 12-1 29 2 39 6-27 23-49 58-41v29" id="y"/><path fill="#3a414a" d="M24-231v-30h32v30H24zM24 0v-190h32V0H24" id="z"/><path fill="#3a414a" d="M177-190C167-65 218 103 67 71c-23-6-38-20-44-43l32-5c15 47 100 32 89-28v-30C133-14 115 1 83 1 29 1 15-40 15-95c0-56 16-97 71-98 29-1 48 16 59 35 1-10 0-23 2-32h30zM94-22c36 0 50-32 50-73 0-42-14-75-50-75-39 0-46 34-46 75s6 73 46 73" id="A"/><path fill="#3a414a" d="M141-36C126-15 110 5 73 4 37 3 15-17 15-53c-1-64 63-63 125-63 3-35-9-54-41-54-24 1-41 7-42 31l-33-3c5-37 33-52 76-52 45 0 72 20 72 64v82c-1 20 7 32 28 27v20c-31 9-61-2-59-35zM48-53c0 20 12 33 32 33 41-3 63-29 60-74-43 2-92-5-92 41" id="B"/><g id="b"><use transform="matrix(0.06172839506172839,0,0,0.06172839506172839,0,0)" xlink:href="#x"/><use transform="matrix(0.06172839506172839,0,0,0.06172839506172839,6.172839506172839,0)" xlink:href="#y"/><use transform="matrix(0.06172839506172839,0,0,0.06172839506172839,13.518518518518519,0)" xlink:href="#y"/><use transform="matrix(0.06172839506172839,0,0,0.06172839506172839,20.864197530864196,0)" xlink:href="#z"/><use transform="matrix(0.06172839506172839,0,0,0.06172839506172839,25.74074074074074,0)" xlink:href="#A"/><use transform="matrix(0.06172839506172839,0,0,0.06172839506172839,38.08641975308642,0)" xlink:href="#B"/><use transform="matrix(0.06172839506172839,0,0,0.06172839506172839,50.432098765432094,0)" xlink:href="#s"/><use transform="matrix(0.06172839506172839,0,0,0.06172839506172839,56.60493827160494,0)" xlink:href="#z"/><use transform="matrix(0.06172839506172839,0,0,0.06172839506172839,61.48148148148148,0)" xlink:href="#t"/><use transform="matrix(0.06172839506172839,0,0,0.06172839506172839,73.82716049382717,0)" xlink:href="#u"/></g><path d="M212-179c-10-28-35-45-73-45-59 0-87 40-87 99 0 60 29 101 89 101 43 0 62-24 78-52l27 14C228-24 195 4 139 4 59 4 22-46 18-125c-6-104 99-153 187-111 19 9 31 26 39 46" id="C"/><path d="M114-163C36-179 61-72 57 0H25l-1-190h30c1 12-1 29 2 39 6-27 23-49 58-41v29" id="D"/><path d="M100-194c62-1 85 37 85 99 1 63-27 99-86 99S16-35 15-95c0-66 28-99 85-99zM99-20c44 1 53-31 53-75 0-43-8-75-51-75s-53 32-53 75 10 74 51 75" id="E"/><path d="M115-194c55 1 70 41 70 98S169 2 115 4C84 4 66-9 55-30l1 105H24l-1-265h31l2 30c10-21 28-34 59-34zm-8 174c40 0 45-34 45-75s-6-73-45-74c-42 0-51 32-51 76 0 43 10 73 51 73" id="F"/><path d="M135-143c-3-34-86-38-87 0 15 53 115 12 119 90S17 21 10-45l28-5c4 36 97 45 98 0-10-56-113-15-118-90-4-57 82-63 122-42 12 7 21 19 24 35" id="G"/><path d="M33 0v-38h34V0H33" id="H"/><g id="c"><use transform="matrix(0.05,0,0,0.05,0,0)" xlink:href="#C"/><use transform="matrix(0.05,0,0,0.05,12.950000000000001,0)" xlink:href="#D"/><use transform="matrix(0.05,0,0,0.05,18.900000000000002,0)" xlink:href="#E"/><use transform="matrix(0.05,0,0,0.05,28.900000000000002,0)" xlink:href="#F"/><use transform="matrix(0.05,0,0,0.05,38.900000000000006,0)" xlink:href="#G"/><use transform="matrix(0.05,0,0,0.05,47.900000000000006,0)" xlink:href="#H"/></g><path d="M185-189c-5-48-123-54-124 2 14 75 158 14 163 119 3 78-121 87-175 55-17-10-28-26-33-46l33-7c5 56 141 63 141-1 0-78-155-14-162-118-5-82 145-84 179-34 5 7 8 16 11 25" id="I"/><path d="M24-231v-30h32v30H24zM24 0v-190h32V0H24" id="J"/><path d="M24 0v-261h32V0H24" id="K"/><g id="d"><use transform="matrix(0.05,0,0,0.05,0,0)" xlink:href="#I"/><use transform="matrix(0.05,0,0,0.05,12,0)" xlink:href="#E"/><use transform="matrix(0.05,0,0,0.05,22,0)" xlink:href="#J"/><use transform="matrix(0.05,0,0,0.05,25.950000000000003,0)" xlink:href="#K"/></g><path d="M100-194c63 0 86 42 84 106H49c0 40 14 67 53 68 26 1 43-12 49-29l28 8c-11 28-37 45-77 45C44 4 14-33 15-96c1-61 26-98 85-98zm52 81c6-60-76-77-97-28-3 7-6 17-6 28h103" id="L"/><path d="M117-194c89-4 53 116 60 194h-32v-121c0-31-8-49-39-48C34-167 62-67 57 0H25l-1-190h30c1 10-1 24 2 32 11-22 29-35 61-36" id="M"/><g id="e"><use transform="matrix(0.05,0,0,0.05,0,0)" xlink:href="#I"/><use transform="matrix(0.05,0,0,0.05,12,0)" xlink:href="#L"/><use transform="matrix(0.05,0,0,0.05,22,0)" xlink:href="#M"/><use transform="matrix(0.05,0,0,0.05,32,0)" xlink:href="#G"/><use transform="matrix(0.05,0,0,0.05,41,0)" xlink:href="#E"/><use transform="matrix(0.05,0,0,0.05,51,0)" xlink:href="#D"/></g><path d="M266 0h-40l-56-210L115 0H75L2-248h35L96-30l15-64 43-154h32l59 218 59-218h35" id="N"/><path d="M141-36C126-15 110 5 73 4 37 3 15-17 15-53c-1-64 63-63 125-63 3-35-9-54-41-54-24 1-41 7-42 31l-33-3c5-37 33-52 76-52 45 0 72 20 72 64v82c-1 20 7 32 28 27v20c-31 9-61-2-59-35zM48-53c0 20 12 33 32 33 41-3 63-29 60-74-43 2-92-5-92 41" id="O"/><path d="M59-47c-2 24 18 29 38 22v24C64 9 27 4 27-40v-127H5v-23h24l9-43h21v43h35v23H59v120" id="P"/><g id="f"><use transform="matrix(0.05,0,0,0.05,0,0)" xlink:href="#N"/><use transform="matrix(0.05,0,0,0.05,16.3,0)" xlink:href="#O"/><use transform="matrix(0.05,0,0,0.05,26.3,0)" xlink:href="#P"/><use transform="matrix(0.05,0,0,0.05,31.3,0)" xlink:href="#L"/><use transform="matrix(0.05,0,0,0.05,41.3,0)" xlink:href="#D"/></g><path d="M108 0H70L1-190h34L89-25l56-165h34" id="Q"/><g id="g"><use transform="matrix(0.05,0,0,0.05,0,0)" xlink:href="#K"/><use transform="matrix(0.05,0,0,0.05,3.95,0)" xlink:href="#L"/><use transform="matrix(0.05,0,0,0.05,13.949999999999998,0)" xlink:href="#Q"/><use transform="matrix(0.05,0,0,0.05,22.95,0)" xlink:href="#L"/><use transform="matrix(0.05,0,0,0.05,32.95,0)" xlink:href="#K"/></g><path d="M115-194c53 0 69 39 70 98 0 66-23 100-70 100C84 3 66-7 56-30L54 0H23l1-261h32v101c10-23 28-34 59-34zm-8 174c40 0 45-34 45-75 0-40-5-75-45-74-42 0-51 32-51 76 0 43 10 73 51 73" id="R"/><g id="h"><use transform="matrix(0.05,0,0,0.05,0,0)" xlink:href="#I"/><use transform="matrix(0.05,0,0,0.05,12,0)" xlink:href="#P"/><use transform="matrix(0.05,0,0,0.05,17,0)" xlink:href="#O"/><use transform="matrix(0.05,0,0,0.05,27,0)" xlink:href="#R"/><use transform="matrix(0.05,0,0,0.05,37,0)" xlink:href="#K"/><use transform="matrix(0.05,0,0,0.05,40.95,0)" xlink:href="#L"/></g><path d="M206 0h-36l-40-164L89 0H53L-1-190h32L70-26l43-164h34l41 164 42-164h31" id="S"/><g id="j"><use transform="matrix(0.05,0,0,0.05,0,0)" xlink:href="#K"/><use transform="matrix(0.05,0,0,0.05,3.95,0)" xlink:href="#E"/><use transform="matrix(0.05,0,0,0.05,13.949999999999998,0)" xlink:href="#S"/></g><path d="M190 0L58-211 59 0H30v-248h39L202-35l-2-213h31V0h-41" id="T"/><path d="M101-234c-31-9-42 10-38 44h38v23H63V0H32v-167H5v-23h27c-7-52 17-82 69-68v24" id="U"/><path d="M96-169c-40 0-48 33-48 73s9 75 48 75c24 0 41-14 43-38l32 2c-6 37-31 61-74 61-59 0-76-41-82-99-10-93 101-131 147-64 4 7 5 14 7 22l-32 3c-4-21-16-35-41-35" id="V"/><g id="k"><use transform="matrix(0.05,0,0,0.05,0,0)" xlink:href="#T"/><use transform="matrix(0.05,0,0,0.05,12.950000000000001,0)" xlink:href="#E"/><use transform="matrix(0.05,0,0,0.05,22.950000000000003,0)" xlink:href="#P"/><use transform="matrix(0.05,0,0,0.05,27.950000000000003,0)" xlink:href="#J"/><use transform="matrix(0.05,0,0,0.05,31.900000000000002,0)" xlink:href="#U"/><use transform="matrix(0.05,0,0,0.05,36.900000000000006,0)" xlink:href="#J"/><use transform="matrix(0.05,0,0,0.05,40.85000000000001,0)" xlink:href="#V"/><use transform="matrix(0.05,0,0,0.05,49.85000000000001,0)" xlink:href="#O"/><use transform="matrix(0.05,0,0,0.05,59.85,0)" xlink:href="#P"/><use transform="matrix(0.05,0,0,0.05,64.85000000000001,0)" xlink:href="#J"/><use transform="matrix(0.05,0,0,0.05,68.80000000000001,0)" xlink:href="#E"/><use transform="matrix(0.05,0,0,0.05,78.80000000000001,0)" xlink:href="#M"/></g><path d="M127-220V0H93v-220H8v-28h204v28h-85" id="W"/><path d="M84 4C-5 8 30-112 23-190h32v120c0 31 7 50 39 49 72-2 45-101 50-169h31l1 190h-30c-1-10 1-25-2-33-11 22-28 36-60 37" id="X"/><path d="M177-190C167-65 218 103 67 71c-23-6-38-20-44-43l32-5c15 47 100 32 89-28v-30C133-14 115 1 83 1 29 1 15-40 15-95c0-56 16-97 71-98 29-1 48 16 59 35 1-10 0-23 2-32h30zM94-22c36 0 50-32 50-73 0-42-14-75-50-75-39 0-46 34-46 75s6 73 46 73" id="Y"/><g id="l"><use transform="matrix(0.05,0,0,0.05,0,0)" xlink:href="#W"/><use transform="matrix(0.05,0,0,0.05,10.3,0)" xlink:href="#X"/><use transform="matrix(0.05,0,0,0.05,20.3,0)" xlink:href="#D"/><use transform="matrix(0.05,0,0,0.05,26.25,0)" xlink:href="#M"/><use transform="matrix(0.05,0,0,0.05,36.25,0)" xlink:href="#J"/><use transform="matrix(0.05,0,0,0.05,40.2,0)" xlink:href="#M"/><use transform="matrix(0.05,0,0,0.05,50.2,0)" xlink:href="#Y"/></g><g id="m"><use transform="matrix(0.05,0,0,0.05,0,0)" xlink:href="#E"/><use transform="matrix(0.05,0,0,0.05,10,0)" xlink:href="#M"/></g><g id="n"><use transform="matrix(0.05,0,0,0.05,0,0)" xlink:href="#P"/><use transform="matrix(0.05,0,0,0.05,5,0)" xlink:href="#O"/><use transform="matrix(0.05,0,0,0.05,15,0)" xlink:href="#F"/></g><path fill="#3a414a" d="M96-169c-40 0-48 33-48 73s9 75 48 75c24 0 41-14 43-38l32 2c-6 37-31 61-74 61-59 0-76-41-82-99-10-93 101-131 147-64 4 7 5 14 7 22l-32 3c-4-21-16-35-41-35" id="Z"/><g id="o"><use transform="matrix(0.06172839506172839,0,0,0.06172839506172839,0,0)" xlink:href="#q"/><use transform="matrix(0.06172839506172839,0,0,0.06172839506172839,14.814814814814813,0)" xlink:href="#Z"/><use transform="matrix(0.06172839506172839,0,0,0.06172839506172839,25.925925925925924,0)" xlink:href="#s"/><use transform="matrix(0.06172839506172839,0,0,0.06172839506172839,32.098765432098766,0)" xlink:href="#t"/><use transform="matrix(0.06172839506172839,0,0,0.06172839506172839,44.44444444444444,0)" xlink:href="#y"/></g><path fill="#333" d="M15-91v-56l181-69v40L49-119l147 57v40" id="aa"/><path fill="#333" d="M25-224v-37h50v37H25zM25 0v-190h50V0H25" id="ab"/><path fill="#333" d="M135-194c87-1 58 113 63 194h-50c-7-57 23-157-34-157-59 0-34 97-39 157H25l-1-190h47c2 12-1 28 3 38 12-26 28-41 61-42" id="ac"/><path fill="#333" d="M190-63c-7 42-38 67-86 67-59 0-84-38-90-98-12-110 154-137 174-36l-49 2c-2-19-15-32-35-32-30 0-35 28-38 64-6 74 65 87 74 30" id="ad"/><path fill="#333" d="M25 0v-261h50V0H25" id="ae"/><path fill="#333" d="M85 4C-2 5 27-109 22-190h50c7 57-23 150 33 157 60-5 35-97 40-157h50l1 190h-47c-2-12 1-28-3-38-12 25-28 42-61 42" id="af"/><path fill="#333" d="M88-194c31-1 46 15 58 34l-1-101h50l1 261h-48c-2-10 0-23-3-31C134-8 116 4 84 4 32 4 16-41 15-95c0-56 19-97 73-99zm17 164c33 0 40-30 41-66 1-37-9-64-41-64s-38 30-39 65c0 43 13 65 39 65" id="ag"/><path fill="#333" d="M185-48c-13 30-37 53-82 52C43 2 14-33 14-96s30-98 90-98c62 0 83 45 84 108H66c0 31 8 55 39 56 18 0 30-7 34-22zm-45-69c5-46-57-63-70-21-2 6-4 13-4 21h74" id="ah"/><path fill="#333" d="M15-22v-40l146-57-146-57v-40l181 69v56" id="ai"/><g id="p"><use transform="matrix(0.04938271604938272,0,0,0.04938271604938272,0,0)" xlink:href="#aa"/><use transform="matrix(0.04938271604938272,0,0,0.04938271604938272,10.370370370370372,0)" xlink:href="#ab"/><use transform="matrix(0.04938271604938272,0,0,0.04938271604938272,15.308641975308642,0)" xlink:href="#ac"/><use transform="matrix(0.04938271604938272,0,0,0.04938271604938272,26.12345679012346,0)" xlink:href="#ad"/><use transform="matrix(0.04938271604938272,0,0,0.04938271604938272,36,0)" xlink:href="#ae"/><use transform="matrix(0.04938271604938272,0,0,0.04938271604938272,40.93827160493827,0)" xlink:href="#af"/><use transform="matrix(0.04938271604938272,0,0,0.04938271604938272,51.75308641975309,0)" xlink:href="#ag"/><use transform="matrix(0.04938271604938272,0,0,0.04938271604938272,62.567901234567906,0)" xlink:href="#ah"/><use transform="matrix(0.04938271604938272,0,0,0.04938271604938272,72.44444444444446,0)" xlink:href="#ai"/></g></defs></g></svg>